<?xml version="1.0" encoding="UTF-8"?>
<svg width="700pt" height="500pt" version="1.1" viewBox="0 0 700 700" xmlns="http://www.w3.org/2000/svg" xmlns:xlink="http://www.w3.org/1999/xlink">
 <g>
  <path fill="#2358c5" d="m106.23 173.95h487.55c3.793-0.11328 7.0781-2.6562 8.1406-6.3008 0.82422-3.707-0.83594-7.5273-4.1133-9.4492l-243.78-135.27c-2.5078-1.4922-5.6289-1.4922-8.1367 0l-243.77 135.27c-3.3867 1.8242-5.0586 5.7461-4.0273 9.4492 1.0625 3.6445 4.3477 6.1875 8.1406 6.3008zm243.77-108.59 133.88 74.637h-267.75z"/>
  <path fill="#2358c5" d="m611.71 474.07c0-2.3203-0.92188-4.5469-2.5625-6.1875-1.6406-1.6406-3.8672-2.5625-6.1875-2.5625h-506.27c-4.832 0-8.75 3.918-8.75 8.75v25.375h523.77z"/>
  <path fill="#2358c5" d="m619.06 516.25h-538.12c-6.0391 0-10.938 4.8984-10.938 10.938s4.8984 10.938 10.938 10.938h538.12c6.0391 0 10.938-4.8984 10.938-10.938s-4.8984-10.938-10.938-10.938z"/>
  <path fill="#2358c5" d="m136.06 386.31c-0.66406 0-1.3008 0.26953-1.7656 0.75-0.46094 0.47656-0.70703 1.1211-0.68359 1.7891v23.711h-16.449c-4.8359 0-8.75 3.918-8.75 8.75v27.562h482.73v-27.914c0-2.3203-0.92188-4.543-2.5625-6.1875-1.6406-1.6406-3.8672-2.5625-6.1875-2.5625h-16.012v-23.359c0-1.4023-1.1367-2.5391-2.5352-2.5391h-16.715v-115.06h14.699c2.3203 0 4.5469-0.92188 6.1875-2.5625 1.6406-1.6406 2.5625-3.8672 2.5625-6.1875v-71.75h-440.82v71.75c0 2.3203 0.92188 4.5469 2.5625 6.1875s3.8672 2.5625 6.1875 2.5625h14.352v115.06zm192.5 0h-16.363v-115.06h75.512v115.06h-16.625c-1.3984 0-2.5352 1.1367-2.5352 2.5391v23.711h-37.102v-23.711c0-1.4023-1.1367-2.5391-2.5352-2.5391zm176.4 0h-16.359c-0.68359-0.023438-1.3398 0.23438-1.8242 0.71484-0.48047 0.48438-0.73828 1.1406-0.71484 1.8242v23.711h-37.188v-23.711c0-1.4023-1.1367-2.5391-2.5391-2.5391h-16.711v-115.06h75.688zm-20.387-173.43c0-1.3672 1.082-2.4883 2.4492-2.5352h36.051c0.66406-0.003906 1.3047 0.26953 1.7656 0.74609 0.46094 0.48047 0.70703 1.125 0.68359 1.7891v36.051c0.023437 0.66406-0.22266 1.3125-0.68359 1.7891-0.46094 0.48047-1.1016 0.75-1.7656 0.75h-36.051c-1.3477-0.089843-2.4062-1.1875-2.4492-2.5391zm-77.523 0c-0.13281-0.72266 0.066407-1.4648 0.54297-2.0234 0.47266-0.55859 1.1719-0.875 1.9062-0.86328h36.051c1.3672 0.046875 2.4492 1.168 2.4492 2.5391v36.051-0.003906c-0.042969 1.3516-1.1016 2.4492-2.4492 2.5391h-36.051c-0.66406 0-1.3008-0.26953-1.7656-0.75-0.46094-0.47656-0.70703-1.1211-0.68359-1.7891zm-77.613 0c0-1.3672 1.082-2.4883 2.4492-2.5352h36.137c1.3672 0.046876 2.4531 1.168 2.4531 2.5352v36.051c-0.042968 1.3516-1.1055 2.4492-2.4531 2.5391h-36.137c-1.3477-0.089843-2.4062-1.1875-2.4492-2.5391zm-77.523 0c-0.003906-1.3672 1.082-2.4883 2.4492-2.5352h36.137c1.3672 0.046876 2.4492 1.168 2.4492 2.5352v36.051c-0.042969 1.3516-1.1016 2.4492-2.4492 2.5391h-36.137c-1.3477-0.089843-2.4102-1.1875-2.4492-2.5391zm-77.523 0h-0.003906c0-1.3672 1.082-2.4883 2.4492-2.5352h36.141c1.3672 0.046876 2.4492 1.168 2.4492 2.5352v36.051c-0.042969 1.3516-1.1016 2.4492-2.4492 2.5391h-36.141c-1.3477-0.089843-2.4062-1.1875-2.4492-2.5391zm96.25 58.273-0.003906 115.15h-16.887c-0.67969-0.023438-1.3398 0.23438-1.8203 0.71484-0.48438 0.48438-0.74219 1.1406-0.71875 1.8242v23.711h-37.273v-23.711c0.023438-0.68359-0.23438-1.3398-0.71484-1.8242-0.48438-0.48047-1.1406-0.73828-1.8242-0.71484h-16.711v-115.06z"/>
 </g>
</svg>
