<?xml version="1.0" encoding="UTF-8"?>
<svg width="700pt" height="700pt" version="1.1" viewBox="0 0 700 700" xmlns="http://www.w3.org/2000/svg" xmlns:xlink="http://www.w3.org/1999/xlink">
 <g>
  <path fill="#2358c5" d="m608.16 454.72c-24.078-14.559-53.199-26.879-85.68-36.961v-90.156h26.879c29.121 0 52.641-23.52 52.641-52.641 0-17.359-8.3984-32.48-21.281-42 3.3594-6.1602 5.0391-12.32 5.0391-19.602 0-21.84-16.801-39.762-38.078-42-1.6797-21.84-20.16-38.641-42-38.641-17.359 0-31.922 10.078-38.641 25.199 0 2.2383 0.55859 4.4805 0.55859 6.7188 0 4.4805-0.55859 8.9609-1.1211 13.441 12.32 15.121 19.039 34.16 19.039 54.32 0 38.078-24.641 70-58.801 81.762 8.9609 8.3984 21.281 13.441 34.719 13.441h26.879l0.007812 81.199c-37.52-8.4023-78.398-13.441-121.52-14.562v-104.16h31.359c31.922 0 57.68-25.762 57.68-57.68 0-19.039-8.9609-35.84-23.52-46.48 3.3594-6.7188 5.6016-14 5.6016-21.84 0-24.078-18.48-44.238-42-46.48-2.2383-24.078-21.84-43.121-46.48-43.121s-44.801 19.039-46.48 43.121c-23.52 2.2383-42 22.398-42 46.48 0 7.8398 1.6797 15.121 5.6016 21.84-14 10.641-23.52 27.441-23.52 46.48 0 31.922 25.762 57.68 57.68 57.68h32.477v103.6c-43.121 1.1211-84 6.1602-120.96 14.559v-80.637h26.879c13.441 0 25.762-5.0391 34.719-13.441-34.16-11.762-58.801-43.68-58.801-81.762 0-19.602 7.2812-39.199 19.039-54.32-1.1211-4.4805-1.1211-8.9609-1.1211-13.441 0-2.2383 0-4.4805 0.55859-6.7188-6.7188-14.559-21.281-25.199-38.641-25.199-22.398 0-40.32 17.359-42 38.641-21.27 2.2422-38.07 20.16-38.07 42 0 7.2812 1.6797 13.441 5.0391 19.602-12.879 9.5195-21.281 24.641-21.281 42 0 29.121 23.52 52.641 52.641 52.641h26.879v90.16c-32.48 10.078-61.602 22.398-85.68 36.961-15.121 8.9609-6.7188 33.039 10.641 30.238 74.48-10.078 158.48-15.68 247.52-15.68 89.039 0 173.04 5.6016 247.52 15.68 16.801 2.2383 25.203-21.281 10.082-30.242z"/>
  <use x="70" y="644" xlink:href="#x"/>
  <use x="90.550781" y="644" xlink:href="#c"/>
  <use x="104.359375" y="644" xlink:href="#a"/>
  <use x="123.347656" y="644" xlink:href="#l"/>
  <use x="142.242188" y="644" xlink:href="#b"/>
  <use x="155.628906" y="644" xlink:href="#a"/>
  <use x="174.617188" y="644" xlink:href="#k"/>
  <use x="204.410156" y="644" xlink:href="#j"/>
  <use x="224.453125" y="644" xlink:href="#i"/>
  <use x="252.453125" y="644" xlink:href="#h"/>
  <use x="274.121094" y="644" xlink:href="#w"/>
  <use x="283.71875" y="644" xlink:href="#g"/>
  <use x="293.316406" y="644" xlink:href="#f"/>
  <use x="309.914062" y="644" xlink:href="#a"/>
  <use x="338.652344" y="644" xlink:href="#v"/>
  <use x="361.894531" y="644" xlink:href="#a"/>
  <use x="380.882812" y="644" xlink:href="#u"/>
  <use x="397.550781" y="644" xlink:href="#g"/>
  <use x="407.148438" y="644" xlink:href="#t"/>
  <use x="427.191406" y="644" xlink:href="#e"/>
  <use x="70" y="672" xlink:href="#s"/>
  <use x="82.183594" y="672" xlink:href="#c"/>
  <use x="95.992188" y="672" xlink:href="#d"/>
  <use x="115.226562" y="672" xlink:href="#r"/>
  <use x="154.152344" y="672" xlink:href="#b"/>
  <use x="167.535156" y="672" xlink:href="#q"/>
  <use x="187.46875" y="672" xlink:href="#a"/>
  <use x="216.207031" y="672" xlink:href="#p"/>
  <use x="239.640625" y="672" xlink:href="#d"/>
  <use x="258.878906" y="672" xlink:href="#o"/>
  <use x="278.8125" y="672" xlink:href="#e"/>
  <use x="308.492188" y="672" xlink:href="#n"/>
  <use x="329.015625" y="672" xlink:href="#c"/>
  <use x="342.820312" y="672" xlink:href="#d"/>
  <use x="362.058594" y="672" xlink:href="#m"/>
  <use x="371.65625" y="672" xlink:href="#a"/>
  <use x="390.648438" y="672" xlink:href="#f"/>
  <use x="407.242188" y="672" xlink:href="#b"/>
 </g>
</svg>
