<?xml version="1.0" encoding="UTF-8"?>
<svg width="700pt" height="700pt" version="1.1" viewBox="0 0 700 700" xmlns="http://www.w3.org/2000/svg">
 <g>
  <path fill="#2358c5" d="m583.33 163.33c0-30.941-12.289-60.617-34.168-82.496-21.879-21.879-51.555-34.168-82.496-34.168h-280c-18.566 0-36.371 7.375-49.5 20.5-13.125 13.129-20.5 30.934-20.5 49.5v210c0 12.375 4.9141 24.246 13.668 32.996 8.75 8.7539 20.621 13.668 32.996 13.668h46.668v93.336c0 12.375 4.918 24.246 13.668 32.996 8.7539 8.7539 20.621 13.668 33 13.668h280c12.375 0 24.246-4.9141 32.996-13.668 8.7539-8.75 13.668-20.621 13.668-32.996zm-420 163.34v-210c0-8.3359 4.4492-16.039 11.668-20.207 7.2188-4.168 16.113-4.168 23.332 0 7.2188 4.168 11.668 11.871 11.668 20.207v210zm373.33 140h-280v-350c0.007812-4.3945-0.46094-8.7773-1.4023-13.066v-4.1992c0-1.3984 0-4.1992-1.6328-6.0664l213.04-0.003907c18.562 0 36.367 7.375 49.496 20.504 13.129 13.129 20.504 30.934 20.504 49.496z"/>
  <path fill="#2358c5" d="m466.67 350h-93.336c-8.3359 0-16.039 4.4492-20.207 11.668s-4.168 16.113 0 23.332 11.871 11.668 20.207 11.668h93.336c8.3359 0 16.039-4.4492 20.207-11.668s4.168-16.113 0-23.332-11.871-11.668-20.207-11.668z"/>
  <path fill="#2358c5" d="m466.67 256.67h-140c-8.3359 0-16.039 4.4453-20.207 11.664-4.168 7.2188-4.168 16.117 0 23.336 4.168 7.2188 11.871 11.664 20.207 11.664h140c8.3359 0 16.039-4.4453 20.207-11.664s4.168-16.117 0-23.336-11.871-11.664-20.207-11.664z"/>
  <path fill="#2358c5" d="m466.67 163.33h-140c-8.3359 0-16.039 4.4492-20.207 11.668-4.168 7.2188-4.168 16.113 0 23.332 4.168 7.2188 11.871 11.668 20.207 11.668h140c8.3359 0 16.039-4.4492 20.207-11.668s4.168-16.113 0-23.332-11.871-11.668-20.207-11.668z"/>
 </g>
</svg>
