<svg width="148" height="148" viewBox="0 0 148 148" fill="none" xmlns="http://www.w3.org/2000/svg">
<rect x="2.5" y="2.5" width="143" height="143" rx="27.5" fill="#2358C5" stroke="#2358C5" stroke-width="5"/>
<path d="M74.3321 21.2822V32.9933ZM110.217 36.1456L101.936 44.4263ZM35.2951 72.0303H23.584ZM46.7281 44.4263L38.4473 36.1456Z" fill="white"/>
<path d="M74.3321 21.2822V32.9933M110.217 36.1456L101.936 44.4263M35.2951 72.0303H23.584M46.7281 44.4263L38.4473 36.1456M124.677 72.0303H112.966" stroke="white" stroke-width="5" stroke-miterlimit="10" stroke-linecap="round"/>
<rect x="46.9443" y="119.556" width="54.7757" height="6.44421" rx="3.2221" fill="white"/>
<path fill-rule="evenodd" clip-rule="evenodd" d="M79.2111 107.648C87.0418 101.753 101.546 88.3764 101.546 70.1649C101.546 55.1355 89.3619 42.9517 74.3324 42.9517C59.3029 42.9517 47.1191 55.1355 47.1191 70.1649C47.1191 88.0364 61.6684 101.597 69.4904 107.596C72.3896 109.819 76.292 109.846 79.2111 107.648ZM74.3324 78.2286C78.7856 78.2286 82.3956 74.6186 82.3956 70.1654C82.3956 65.7122 78.7856 62.1022 74.3324 62.1022C69.8792 62.1022 66.2692 65.7122 66.2692 70.1654C66.2692 74.6186 69.8792 78.2286 74.3324 78.2286Z" fill="white"/>
</svg>
