<svg width="134" height="134" viewBox="0 0 134 134" fill="none" xmlns="http://www.w3.org/2000/svg">
<path d="M100.417 54.1514L98.2751 55.4408C98.9255 56.5213 100.279 56.9481 101.432 56.4362L100.417 54.1514ZM71.2854 59.9282L71.2538 62.428C72.5038 62.4438 73.5734 61.5337 73.758 60.2973L71.2854 59.9282ZM75.0378 86.2003L76.8069 84.4338C76.1535 83.7795 75.1924 83.5393 74.308 83.8092L75.0378 86.2003ZM95.1127 84.9911L96.832 83.1762C96.3212 82.6923 95.6302 82.446 94.9285 82.4979C94.2269 82.5497 93.5795 82.8948 93.1454 83.4484L95.1127 84.9911ZM102.559 52.862C99.3651 47.5571 93.544 43.9995 86.8896 43.9995V48.9995C91.7186 48.9995 95.9483 51.5758 98.2751 55.4408L102.559 52.862ZM86.8896 43.9995C77.7176 43.9995 70.1274 50.753 68.8128 59.5591L73.758 60.2973C74.7124 53.904 80.2305 48.9995 86.8896 48.9995V43.9995ZM71.317 57.4284C71.2488 57.4275 71.1805 57.4271 71.1122 57.4271V62.4271C71.1595 62.4271 71.2067 62.4274 71.2538 62.428L71.317 57.4284ZM71.1122 57.4271C62.3153 57.4271 55.1841 64.5583 55.1841 73.3552H60.1841C60.1841 67.3197 65.0768 62.4271 71.1122 62.4271V57.4271ZM55.1841 73.3552C55.1841 82.152 62.3153 89.2832 71.1122 89.2832V84.2832C65.0768 84.2832 60.1841 79.3906 60.1841 73.3552H55.1841ZM71.1122 89.2832C72.728 89.2832 74.292 89.0418 75.7677 88.5914L74.308 83.8092C73.3002 84.1168 72.2279 84.2832 71.1122 84.2832V89.2832ZM73.2688 87.9668C76.1491 90.8512 80.1379 92.6401 84.5397 92.6401V87.6401C81.5185 87.6401 78.7876 86.4174 76.8069 84.4338L73.2688 87.9668ZM84.5397 92.6401C89.6328 92.6401 94.1683 90.2469 97.08 86.5337L93.1454 83.4484C91.1407 86.0049 88.0319 87.6401 84.5397 87.6401V92.6401ZM108.039 87.6405C103.697 87.6405 99.7554 85.9456 96.832 83.1762L93.3933 86.806C97.2083 90.4201 102.367 92.6405 108.039 92.6405V87.6405ZM124.339 71.3412C124.339 80.3431 117.041 87.6405 108.039 87.6405V92.6405C119.803 92.6405 129.339 83.1045 129.339 71.3412H124.339ZM108.039 55.0419C117.041 55.0419 124.339 62.3394 124.339 71.3412H129.339C129.339 59.5779 119.803 50.0419 108.039 50.0419V55.0419ZM101.432 56.4362C103.448 55.5408 105.682 55.0419 108.039 55.0419V50.0419C104.97 50.0419 102.045 50.6928 99.4022 51.8666L101.432 56.4362Z" fill="#2358C5"/>
<path d="M50.2985 23V32.7612M80.2084 35.3886L73.3064 42.2905M17.7612 65.2985H8M27.2905 42.2905L20.3886 35.3886" stroke="#2358C5" stroke-width="5" stroke-miterlimit="10" stroke-linecap="round"/>
<rect x="27.4707" y="104.911" width="45.6555" height="5.37123" rx="2.68562" fill="#2358C5"/>
<path fill-rule="evenodd" clip-rule="evenodd" d="M64.8667 84.8669C61.6144 88.9633 57.9759 92.1864 55.1488 94.3863C52.2652 96.6301 48.3494 96.6035 45.4846 94.3357C38.8259 89.0648 27.6167 78.0649 27.6167 63.7437C27.6167 51.2167 37.7719 41.0615 50.2989 41.0615C60.9245 41.0615 69.8435 48.3677 72.3064 58.2304C72.1597 58.7849 72.0424 59.3513 71.9563 59.928C71.8988 59.9273 71.8413 59.9269 71.7837 59.9269C64.3675 59.9269 58.3556 65.9389 58.3556 73.355C58.3556 78.2411 60.9652 82.5176 64.8667 84.8669ZM57.0194 63.744C57.0194 67.4557 54.0104 70.4646 50.2987 70.4646C46.587 70.4646 43.5781 67.4557 43.5781 63.744C43.5781 60.0323 46.587 57.0233 50.2987 57.0233C54.0104 57.0233 57.0194 60.0323 57.0194 63.744Z" fill="#2358C5"/>
</svg>
